Poster: 
http://imgr.us/images/z6ounkf10nqo7d1a3luw.jpg

Info:
Format : AVI
Format/Info : Audio Video Interleave
File size : 702 MiB
Duration : 1h 53mn
Overall bit rate : 862 Kbps
Writing application : VirtualDubMod 1.5.10.3 | www.virtualdub-fr.org || (build 2550/release)
Writing library : VirtualDubMod build 2550/release

Video
ID : 0
Format : MPEG-4 Visual
Format profile : Advanced Simple@L5
Format settings, BVOP : 4
Format settings, QPel : No
Format settings, GMC : No warppoints
Format settings, Matrix : Custom
Codec ID : XVID
Codec ID/Hint : XviD
Duration : 1h 53mn
Bit rate : 725 Kbps
Width : 672 pixels
Height : 288 pixels
Display aspect ratio : 2.35:1
Frame rate : 25.000 fps
Color space : YUV
Chroma subsampling : 4:2:0
Bit depth : 8 bits
Scan type : Progressive
Compression mode : Lossy
Bits/(Pixel*Frame) : 0.150
Stream size : 590 MiB (84%)
Writing library : XviD 1.2.1 (UTC 2008-12-04)

Audio
ID : 1
Format : AC-3
Format/Info : Audio Coding 3
Mode extension : CM (complete main)
Format settings, Endianness : Big
Codec ID : 2000
Duration : 1h 53mn
Bit rate mode : Constant
Bit rate : 128 Kbps
Channel(s) : 6 channels
Channel positions : Front: L C R, Side: L R, LFE
Sampling rate : 48.0 KHz
Bit depth : 16 bits
Compression mode : Lossy
Stream size : 104 MiB (15%)
Alignment : Split accross interleaves
Interleave, duration : 40 ms (1.00 video frame)
Interleave, preload duration : 500 ms


Screens: 
http://imgr.us/images/uavs8nsp3x8zjhg22553.png 
http://imgr.us/images/kw89f6w6p59mrnqbl7kj.png 
http://imgr.us/images/o6gaujig9d6yg4ree2v.png 
http://imgr.us/images/uqbhcqtqpfyey6jrvxwr.png 
http://imgr.us/images/72jvm60eosw797wiwbf.png
